<?xml version="1.0" encoding="utf-8"?>
<svg viewBox="40.857 172.914 440.174 133.744" width="440.174" height="133.744" xmlns="http://www.w3.org/2000/svg">
  <path d="M 150.749 282.63 L 150.749 220.47 L 174.101 220.47 Q 181.409 220.47 186.281 223.452 Q 191.153 226.434 193.589 231.096 Q 196.025 235.758 196.025 240.882 Q 196.025 246.006 193.589 250.71 Q 191.153 255.414 186.281 258.396 Q 181.409 261.378 174.101 261.378 L 160.577 261.378 L 160.577 282.63 Z M 174.101 229.038 L 160.577 229.038 L 160.577 252.81 L 174.101 252.81 Q 178.133 252.81 180.821 251.088 Q 183.509 249.366 184.853 246.636 Q 186.197 243.906 186.197 240.966 Q 186.197 237.942 184.853 235.212 Q 183.509 232.482 180.821 230.76 Q 178.133 229.038 174.101 229.038 Z" style="fill: rgb(105, 139, 42); white-space: pre;"/>
  <path d="M 217.833 283.47 Q 210.525 283.47 205.527 280.194 Q 200.529 276.918 197.967 271.626 Q 195.405 266.334 195.405 260.37 Q 195.405 254.406 197.967 249.114 Q 200.529 243.822 205.527 240.546 Q 210.525 237.27 217.833 237.27 Q 225.057 237.27 230.055 240.546 Q 235.053 243.822 237.615 249.114 Q 240.177 254.406 240.177 260.37 Q 240.177 266.334 237.615 271.626 Q 235.053 276.918 230.055 280.194 Q 225.057 283.47 217.833 283.47 Z M 217.833 275.322 Q 221.949 275.322 224.763 273.222 Q 227.577 271.122 229.047 267.678 Q 230.517 264.234 230.517 260.37 Q 230.517 256.422 229.047 253.02 Q 227.577 249.618 224.763 247.518 Q 221.949 245.418 217.833 245.418 Q 213.717 245.418 210.861 247.518 Q 208.005 249.618 206.577 253.02 Q 205.149 256.422 205.149 260.37 Q 205.149 264.234 206.577 267.678 Q 208.005 271.122 210.861 273.222 Q 213.717 275.322 217.833 275.322 Z" style="fill: rgb(105, 139, 42); white-space: pre;"/>
  <path d="M 252.907 282.63 L 238.711 238.11 L 248.371 238.11 L 258.115 270.282 L 268.363 238.11 L 277.267 238.11 L 287.515 270.282 L 297.259 238.11 L 307.003 238.11 L 292.723 282.63 L 282.559 282.63 L 272.815 252.054 L 263.155 282.63 Z" style="fill: rgb(105, 139, 42); white-space: pre;"/>
  <path d="M 327.22 283.47 Q 321.592 283.47 317.518 281.496 Q 313.444 279.522 310.798 276.204 Q 308.152 272.886 306.85 268.77 Q 305.548 264.654 305.548 260.37 Q 305.548 256.17 306.808 252.054 Q 308.068 247.938 310.672 244.578 Q 313.276 241.218 317.308 239.244 Q 321.34 237.27 326.8 237.27 Q 332.68 237.27 337.174 239.916 Q 341.668 242.562 344.23 247.728 Q 346.792 252.894 346.792 260.538 L 346.792 263.142 L 315.208 263.142 Q 315.544 268.266 318.652 271.962 Q 321.76 275.658 327.22 275.658 Q 330.328 275.658 332.344 274.608 Q 334.36 273.558 335.452 272.214 Q 336.544 270.87 337.006 269.862 Q 337.468 268.854 337.468 268.854 L 346.372 268.854 Q 346.372 268.854 345.952 270.324 Q 345.532 271.794 344.398 273.978 Q 343.264 276.162 341.164 278.346 Q 339.064 280.53 335.62 282 Q 332.176 283.47 327.22 283.47 Z M 315.292 256.422 L 337.552 256.422 Q 337.216 250.542 334.066 247.77 Q 330.916 244.998 326.716 244.998 Q 322.012 244.998 318.904 248.064 Q 315.796 251.13 315.292 256.422 Z" style="fill: rgb(105, 139, 42); white-space: pre;"/>
  <path d="M 350.119 282.63 L 350.119 238.11 L 359.695 238.11 L 359.695 243.99 L 360.031 243.99 Q 361.291 241.386 364.021 239.328 Q 366.751 237.27 371.959 237.27 Q 373.555 237.27 374.689 237.438 Q 375.823 237.606 375.823 237.606 L 375.823 246.846 Q 375.823 246.846 374.563 246.678 Q 373.303 246.51 371.707 246.51 Q 365.827 246.51 362.761 249.828 Q 359.695 253.146 359.695 260.538 L 359.695 282.63 Z" style="fill: rgb(105, 139, 42); white-space: pre;"/>
  <path d="M 377.898 282.63 L 377.898 220.47 L 401.25 220.47 Q 408.558 220.47 413.43 223.452 Q 418.302 226.434 420.738 231.096 Q 423.174 235.758 423.174 240.882 Q 423.174 246.006 420.738 250.71 Q 418.302 255.414 413.43 258.396 Q 408.558 261.378 401.25 261.378 L 387.726 261.378 L 387.726 282.63 Z M 401.25 229.038 L 387.726 229.038 L 387.726 252.81 L 401.25 252.81 Q 405.282 252.81 407.97 251.088 Q 410.658 249.366 412.002 246.636 Q 413.346 243.906 413.346 240.966 Q 413.346 237.942 412.002 235.212 Q 410.658 232.482 407.97 230.76 Q 405.282 229.038 401.25 229.038 Z" style="fill: rgb(105, 139, 42); white-space: pre;"/>
  <path d="M 442.546 237.27 Q 446.746 237.27 449.56 238.614 Q 452.374 239.958 454.054 241.722 Q 455.734 243.486 456.49 244.746 L 456.994 244.746 L 456.994 238.11 L 466.57 238.11 L 466.57 282.63 L 456.994 282.63 L 456.994 275.994 L 456.49 275.994 Q 455.734 277.254 454.054 279.018 Q 452.374 280.782 449.56 282.126 Q 446.746 283.47 442.546 283.47 Q 437.506 283.47 433.768 281.496 Q 430.03 279.522 427.51 276.204 Q 424.99 272.886 423.772 268.77 Q 422.554 264.654 422.554 260.37 Q 422.554 256.086 423.772 251.97 Q 424.99 247.854 427.51 244.536 Q 430.03 241.218 433.768 239.244 Q 437.506 237.27 442.546 237.27 Z M 444.646 245.25 Q 440.53 245.25 437.758 247.476 Q 434.986 249.702 433.6 253.146 Q 432.214 256.59 432.214 260.37 Q 432.214 264.15 433.6 267.594 Q 434.986 271.038 437.758 273.264 Q 440.53 275.49 444.646 275.49 Q 448.762 275.49 451.492 273.264 Q 454.222 271.038 455.608 267.594 Q 456.994 264.15 456.994 260.37 Q 456.994 256.59 455.608 253.146 Q 454.222 249.702 451.492 247.476 Q 448.762 245.25 444.646 245.25 Z" style="fill: rgb(105, 139, 42); white-space: pre;"/>
  <path d="M 471.577 282.63 L 471.661 218.79 L 481.153 218.79 L 481.153 282.63 Z" style="fill: rgb(105, 139, 42); white-space: pre;"/>
  <g transform="matrix(1, 0, 0, 1, 0, 12.519165)">
    <path id="Nature" d="M 131.016 174.752 C 108.676 161.46 86.267 160.416 66.188 171.516 C 54.705 177.814 46.632 188.254 45.136 198.971 C 44.15 205.657 45.963 212.454 50.147 217.762 C 56.401 206.14 65.937 196.615 77.567 190.376 C 78.696 189.656 80.182 190.428 80.241 191.766 C 80.271 192.456 79.891 193.098 79.272 193.404 C 56.55 206.07 49.138 225.104 44.927 242.12 C 44.925 242.497 45.047 242.864 45.275 243.164 C 45.936 243.999 47.085 243.825 49.207 243.86 C 49.207 243.86 54.518 243.502 54.64 242.475 C 55.316 236.767 59.307 231.875 61.908 227.157 C 78.82 234.604 102.03 223.677 111.738 211.985 C 115.609 206.98 118.501 201.29 120.264 195.213 C 122.63 188.741 124.892 182.477 131.155 177.814 C 132.181 177.125 132.181 175.616 131.155 174.926 L 131.016 174.752 Z" style="fill: rgb(48, 65, 52);"/>
    <g transform="matrix(-0.314564, -0.559137, -0.559137, 0.314564, 138.690384, 272.407074)" style="">
      <path class="st0" d="M 14.7 0 L 20.98 0 C 22.86 0 24.4 1.54 24.4 3.42 L 24.4 24.54 L 44.95 24.54 L 44.95 3.42 C 44.95 1.54 46.49 0 48.37 0 L 54.65 0 C 56.53 0 58.07 1.54 58.07 3.42 L 58.07 24.54 L 69.34 24.54 L 69.34 51.65 C 69.34 66.56 57.14 78.76 42.24 78.76 C 43.32 89.53 46.945 96.217 50.425 100.947 C 52.605 103.907 57.316 105.289 59.97 105.868 C 66.947 107.391 77.26 104.608 81.036 103.545 C 85.884 102.18 89.767 100.564 95.359 97.74 C 98.838 95.983 104.7 91.315 108.38 88.7 C 113.259 85.234 117.617 99.109 114.749 102.316 C 106.748 111.261 84.721 119.293 73.776 121.008 C 66.568 122.138 59.85 123.62 53.58 122.33 C 47.12 121 41.35 117.32 36.74 111.06 C 31.49 103.92 27.79 93.27 26.52 78.75 C 11.88 78.44 0 66.37 0 51.65 L 0 24.54 L 11.27 24.54 L 11.27 3.42 C 11.27 1.54 12.81 0 14.7 0 Z" style="clip-rule: evenodd; fill-rule: evenodd; fill: rgb(48, 65, 52);"/>
    </g>
  </g>
</svg>